<svg xmlns="http://www.w3.org/2000/svg" width="328.622" height="328.622" viewBox="0 0 328.622 328.622">
  <g id="logo" transform="translate(36.311 292.311)">
    <path id="Path_1" data-name="Path 1" d="M159.029-244.029c-21.224,11.776-69.285,56.14-100.914,93.247-14.377,16.842-26.29,33.821-27.659,39.161-.958,3.7-.685,4.108,22.593,29.713,8.763,9.585,16.157,18.074,16.294,18.9.274.685-.685,1.232-2.054,1.232-3.7,0-42.721,13.419-48.746,16.842C12.792-41.789,8-35.08,8-30.425c0,4.382,6.983,10.68,13.008,11.913,5.751,1.1,20.95-1.78,55.455-10.543L97.55-34.4l13.008,12.871L123.429-8.653,119.184,7.641c-8.352,31.767-12.734,54.086-11.776,59.837,1.1,6.436,7.12,13.145,11.776,13.145,3.56,0,8.626-3.149,12.323-7.531,2.875-3.423,9.722-21.36,15.473-39.982l4.245-14.1,20.539,19.17c11.228,10.543,21.771,19.58,23.551,19.991,1.643.548,5.066.137,7.531-.822,5.888-2.328,21.36-13.556,32.862-23.825,13.966-12.6,76.679-77.637,85.99-89.413,8.763-10.954,14.925-21.908,14.925-26.29,0-1.643-13.145-16.02-34.095-37.381l-34.095-34.779,20.128-20.676c22.593-23.141,28.207-30.4,26.974-34.368-.548-1.506-4.245-5.888-8.352-9.722-11.776-11.091-11.5-11.228-39.845,16.979L243.376-178.3l-25.605-24.784C184.224-235.54,170.394-248,168.066-248,166.971-248,162.863-246.22,159.029-244.029Zm42.173,47.1c36.559,34.505,104.748,105.57,108.308,112.69,1.917,3.971-1.917,10.954-13.966,26.153-34.916,43.406-92.151,94.205-101.325,89.96-7.942-3.7-138.3-132.681-138.3-136.789,0-3.423,3.834-10.133,12.049-21.224,8.763-11.776,68.052-72.3,80.512-82.293,10.269-8.216,19.443-13.556,23.277-13.556C173.544-221.984,184.224-212.947,201.2-196.927Z" transform="translate(-44.311 -44.311)"/>
  </g>
</svg>
