<svg xmlns="http://www.w3.org/2000/svg" width="414" height="67" viewBox="0 0 414 67">
  <g id="Group_1" data-name="Group 1" transform="translate(-67 -85)">
    <text id="filtersnstuff" transform="translate(143 139)" fill="#333" font-size="56" font-family="Inter-ExtraBold, Inter" font-weight="800"><tspan x="0" y="0">filtersnstuff</tspan></text>
    <g id="logo" transform="translate(67 90)">
      <path id="Path_1" data-name="Path 1" d="M35-247c-3.771,2.092-12.38,9.407-18,16-2.555,2.993-4.757,6.051-5,7-.17.657-.136,1.45,4,6,1.557,1.7,2.976,2.854,3,3,.049.122.243,0,0,0a67.164,67.164,0,0,0-9,3,4.506,4.506,0,0,0-2,3,2.512,2.512,0,0,0,2,2c1.022.195,3.869-.443,10-2l4-1,2,2,3,3-1,2c-1.484,5.644-2.17,9.978-2,11a2.343,2.343,0,0,0,2,2,2.526,2.526,0,0,0,2-1,30.392,30.392,0,0,0,3-7v-3l4,4a16.807,16.807,0,0,0,4,3,5.017,5.017,0,0,0,2,0c1.046-.414,2.956-2.175,5-4,2.482-2.238,14.346-13.908,16-16a9.25,9.25,0,0,0,2-5c0-.292-2.278-2.2-6-6l-6-6,4-4c4.014-4.112,5.219-5.294,5-6a16.6,16.6,0,0,0-2-2c-2.092-1.971-1.964-2.012-7,3l-4,4-5-4c-5.961-5.766-8.586-8-9-8C35.805-248,35.681-247.389,35-247Zm7,8c6.5,6.131,19.367,18.735,20,20,.341.706-.859,2.3-3,5-6.2,7.713-16.37,16.754-18,16-1.411-.657-24-24.27-24-25,0-.608.54-1.029,2-3,1.557-2.092,11.786-13.224,14-15a7.9,7.9,0,0,1,4-2C37.316-243,38.983-241.847,42-239Z" transform="translate(-8 248)" fill="#333"/>
    </g>
  </g>
</svg>
