<svg xmlns="http://www.w3.org/2000/svg" width="338" height="210" viewBox="0 0 338 210">
  <g id="Group_2" data-name="Group 2" transform="translate(-112 -268)">
    <text id="filtersnstuff" transform="translate(112 465)" fill="#333" font-size="56" font-family="Inter-ExtraBold, Inter" font-weight="800"><tspan x="0" y="0">filtersnstuff</tspan></text>
    <path id="Path_1" data-name="Path 1" d="M68.517-245.759c-8.452,4.69-27.748,21.084-40.345,35.862-5.726,6.707-10.662,13.563-11.207,15.69-.382,1.472-.3,3.251,8.966,13.448,3.49,3.817,6.67,6.4,6.724,6.724.109.273.545,0,0,0-1.472,0-17.773,5.361-20.172,6.724C10.192-166.056,8-162.44,8-160.586c0,1.745,2.083,3.992,4.483,4.483,2.29.436,8.672-.993,22.414-4.483l8.966-2.241,4.483,4.483,6.724,6.724-2.241,4.483c-3.326,12.651-4.864,22.365-4.483,24.655.436,2.563,2.629,4.483,4.483,4.483a5.663,5.663,0,0,0,4.483-2.241c1.145-1.363,4.434-8.273,6.724-15.69v-6.724L73-133.69c4.472,4.2,8.257,6.56,8.966,6.724a11.244,11.244,0,0,0,4.483,0c2.345-.927,6.626-4.876,11.207-8.966,5.562-5.017,32.154-31.172,35.862-35.862A20.734,20.734,0,0,0,138-183c0-.654-5.1-4.941-13.448-13.448L111.1-209.9l8.966-8.965c9-9.216,11.7-11.867,11.207-13.448-.218-.6-2.847-2.956-4.483-4.483-4.69-4.417-4.4-4.509-15.69,6.724l-8.966,8.966-11.207-8.966C77.571-242.993,71.686-248,70.759-248,70.322-248,70.044-246.631,68.517-245.759Zm15.69,17.931c14.56,13.742,43.41,41.992,44.828,44.828.763,1.582-1.925,5.154-6.724,11.207-13.906,17.287-36.691,37.553-40.345,35.862-3.163-1.472-53.793-54.4-53.793-56.034,0-1.363,1.211-2.307,4.483-6.724,3.49-4.69,26.417-29.64,31.379-33.621,4.09-3.272,7.439-4.483,8.966-4.483C73.709-236.793,77.445-234.208,84.207-227.828Z" transform="translate(208 516)" fill="#333"/>
  </g>
</svg>
