<svg xmlns="http://www.w3.org/2000/svg" xmlns:xlink="http://www.w3.org/1999/xlink" width="442" height="67" viewBox="0 0 442 67">
  <defs>
    <clipPath id="clip-path">
      <rect id="Rectangle_1" data-name="Rectangle 1" width="442" height="67" fill="none"/>
    </clipPath>
  </defs>
  <g id="Repeat_Grid_1" data-name="Repeat Grid 1" clip-path="url(#clip-path)">
    <g id="Group_1" data-name="Group 1" transform="translate(-67 -85)">
      <path id="Path_2" data-name="Path 2" d="M29.273-30.545,17.977,0H13.2L1.909-30.545H7L15.432-6.2h.318l8.432-24.341ZM37.386,0V-30.545H42.08V0Zm2.386-35.636a3.3,3.3,0,0,1-2.357-.935,2.989,2.989,0,0,1-.984-2.247,2.989,2.989,0,0,1,.984-2.247A3.3,3.3,0,0,1,39.773-42a3.3,3.3,0,0,1,2.357.935,2.989,2.989,0,0,1,.984,2.247,2.989,2.989,0,0,1-.984,2.247,3.3,3.3,0,0,1-2.357.935ZM50.67,0V-30.545H55.2v4.614h.318a7.335,7.335,0,0,1,3.023-3.679,8.9,8.9,0,0,1,4.932-1.412q.517,0,1.293.02t1.173.06v4.773q-.239-.06-1.084-.189a11.77,11.77,0,0,0-1.78-.129,7.814,7.814,0,0,0-5.528,2.028,6.7,6.7,0,0,0-2.187,5.131V0ZM86.7-30.545v3.977H80.182V-8.75a5.94,5.94,0,0,0,.587,2.973A2.878,2.878,0,0,0,82.28-4.464a5.814,5.814,0,0,0,1.959.328,7.41,7.41,0,0,0,1.273-.089q.5-.089.8-.149l.955,4.216A10.327,10.327,0,0,1,85.935.21,10.309,10.309,0,0,1,83.761.4a9.379,9.379,0,0,1-3.888-.855,7.657,7.657,0,0,1-3.142-2.6,7.438,7.438,0,0,1-1.243-4.415V-26.568H70.875v-3.977h4.614v-7.318h4.693v7.318Zm26.33,18.057V-30.545h4.693V0H113.03V-5.17h-.318a9.949,9.949,0,0,1-3.341,3.947A9.6,9.6,0,0,1,103.648.4a9.485,9.485,0,0,1-7.08-2.844q-2.784-2.844-2.784-8.69V-30.545h4.693v19.091a7.442,7.442,0,0,0,1.879,5.33,6.317,6.317,0,0,0,4.8,1.989,8.051,8.051,0,0,0,3.57-.9,7.848,7.848,0,0,0,3.063-2.744,8.28,8.28,0,0,0,1.245-4.715ZM135.307.716a12.317,12.317,0,0,1-5.27-1.1,8.949,8.949,0,0,1-3.759-3.2,8.982,8.982,0,0,1-1.392-5.081,7.893,7.893,0,0,1,1.034-4.266,7.325,7.325,0,0,1,2.764-2.575,14.763,14.763,0,0,1,3.828-1.4q2.1-.467,4.226-.746,2.784-.358,4.524-.547a6.919,6.919,0,0,0,2.545-.646,1.675,1.675,0,0,0,.8-1.591V-20.6a6.251,6.251,0,0,0-1.6-4.574,6.508,6.508,0,0,0-4.842-1.631,8.44,8.44,0,0,0-5.27,1.472,8.7,8.7,0,0,0-2.685,3.142l-4.455-1.591a10.733,10.733,0,0,1,3.192-4.345,12.029,12.029,0,0,1,4.375-2.187,18.321,18.321,0,0,1,4.683-.626,19.272,19.272,0,0,1,3.391.348,11.085,11.085,0,0,1,3.719,1.422,8.328,8.328,0,0,1,2.993,3.241,12.058,12.058,0,0,1,1.193,5.807V0h-4.693V-4.136h-.239a8.262,8.262,0,0,1-1.591,2.128A9.18,9.18,0,0,1,139.821-.08a11.416,11.416,0,0,1-4.514.8Zm.716-4.216a9.367,9.367,0,0,0,4.7-1.094,7.537,7.537,0,0,0,2.9-2.824,7.252,7.252,0,0,0,.984-3.639v-4.3a2.742,2.742,0,0,1-1.3.646,19.752,19.752,0,0,1-2.307.5q-1.3.209-2.526.358T136.5-13.6a18.222,18.222,0,0,0-3.411.766,5.943,5.943,0,0,0-2.545,1.571,4.013,4.013,0,0,0-.964,2.834A4.176,4.176,0,0,0,131.4-4.74,8.022,8.022,0,0,0,136.023-3.5Zm26.568-37.227V0H157.9V-40.727ZM184.068.6A15.531,15.531,0,0,1,176-1.4a13.293,13.293,0,0,1-5.17-5.558,17.918,17.918,0,0,1-1.8-8.193,17.83,17.83,0,0,1,1.82-8.243,13.458,13.458,0,0,1,5.18-5.548,15.357,15.357,0,0,1,7.994-2,15.975,15.975,0,0,1,7.01,1.452,11.615,11.615,0,0,1,4.753,4.077,12.036,12.036,0,0,1,1.919,6.165h-7.994a6.248,6.248,0,0,0-1.78-3.689,5.176,5.176,0,0,0-3.768-1.4,5.647,5.647,0,0,0-4.733,2.366,10.924,10.924,0,0,0-1.79,6.7,11.183,11.183,0,0,0,1.78,6.771,5.617,5.617,0,0,0,4.743,2.4,5.345,5.345,0,0,0,3.679-1.322,6.077,6.077,0,0,0,1.869-3.768h7.994a12.58,12.58,0,0,1-1.9,6.165,11.482,11.482,0,0,1-4.683,4.146A15.7,15.7,0,0,1,184.068.6Zm27.8-.02a11.318,11.318,0,0,1-7.259-2.287Q201.727-4,201.727-8.531a8.185,8.185,0,0,1,1.611-5.369,9.282,9.282,0,0,1,4.226-2.854,23.886,23.886,0,0,1,5.638-1.183,43.16,43.16,0,0,0,5.688-.835q1.71-.437,1.71-1.909V-20.8a3.675,3.675,0,0,0-1.183-2.923,4.933,4.933,0,0,0-3.351-1.034,6.014,6.014,0,0,0-3.639.994,4.665,4.665,0,0,0-1.79,2.526l-7.835-.636a10.447,10.447,0,0,1,4.345-6.622,15.206,15.206,0,0,1,8.959-2.446,18.536,18.536,0,0,1,6.364,1.074,10.588,10.588,0,0,1,4.783,3.351,9.188,9.188,0,0,1,1.82,5.916V0h-8.034V-4.236H220.8a8.8,8.8,0,0,1-3.331,3.47,10.656,10.656,0,0,1-5.6,1.343ZM214.3-5.27a6.553,6.553,0,0,0,4.574-1.621,5.212,5.212,0,0,0,1.79-4.027v-3.241a4.957,4.957,0,0,1-1.541.6q-1.044.259-2.227.447t-2.118.328a8.39,8.39,0,0,0-3.589,1.253,3.1,3.1,0,0,0-1.362,2.724,3.033,3.033,0,0,0,1.263,2.645,5.423,5.423,0,0,0,3.21.892Zm29.83-12.389V0h-8.472V-30.545h8.074v5.389h.358a8.7,8.7,0,0,1,3.411-4.226,10.291,10.291,0,0,1,5.777-1.561,10,10,0,0,1,7.656,3.072q2.884,3.072,2.884,8.422V0h-8.472V-17.937a6.172,6.172,0,0,0-1.432-4.385,5.156,5.156,0,0,0-4-1.581,5.562,5.562,0,0,0-4.166,1.641,6.38,6.38,0,0,0-1.623,4.6Zm53.713-12.886L287.159,0h-9.545L266.935-30.545h8.949L282.227-8.69h.318l6.324-21.855ZM310.406.577a11.318,11.318,0,0,1-7.259-2.287Q300.264-4,300.264-8.531a8.185,8.185,0,0,1,1.611-5.369,9.282,9.282,0,0,1,4.226-2.854,23.887,23.887,0,0,1,5.638-1.183,43.16,43.16,0,0,0,5.688-.835q1.71-.437,1.71-1.909V-20.8a3.675,3.675,0,0,0-1.183-2.923,4.933,4.933,0,0,0-3.351-1.034,6.013,6.013,0,0,0-3.639.994,4.664,4.664,0,0,0-1.79,2.526l-7.835-.636a10.447,10.447,0,0,1,4.345-6.622,15.206,15.206,0,0,1,8.959-2.446,18.536,18.536,0,0,1,6.364,1.074,10.588,10.588,0,0,1,4.783,3.351,9.188,9.188,0,0,1,1.82,5.916V0h-8.034V-4.236h-.239A8.8,8.8,0,0,1,316-.766,10.656,10.656,0,0,1,310.406.577Zm2.426-5.847a6.553,6.553,0,0,0,4.574-1.621,5.212,5.212,0,0,0,1.79-4.027v-3.241a4.957,4.957,0,0,1-1.541.6q-1.044.259-2.227.447t-2.118.328a8.39,8.39,0,0,0-3.59,1.253,3.1,3.1,0,0,0-1.362,2.724,3.033,3.033,0,0,0,1.263,2.645A5.423,5.423,0,0,0,312.832-5.27Zm46.773-16.565-7.756.477a4.416,4.416,0,0,0-1.611-2.526,5.377,5.377,0,0,0-3.5-1.054,6.317,6.317,0,0,0-3.331.825,2.442,2.442,0,0,0-1.342,2.2,2.285,2.285,0,0,0,.865,1.849,7.033,7.033,0,0,0,3.013,1.213l5.528,1.114q8.81,1.81,8.83,8.273a8.35,8.35,0,0,1-1.76,5.27,11.486,11.486,0,0,1-4.822,3.53A18.29,18.29,0,0,1,346.7.6q-6.065,0-9.665-2.536a9.721,9.721,0,0,1-4.2-6.911l8.332-.437a4.3,4.3,0,0,0,1.839,2.824,6.6,6.6,0,0,0,3.709.955A6.556,6.556,0,0,0,350.3-6.38a2.634,2.634,0,0,0,1.382-2.227q-.06-2.267-3.918-3.043l-5.29-1.054q-8.869-1.77-8.83-8.73a8.062,8.062,0,0,1,3.53-6.96q3.55-2.545,9.416-2.545,5.787,0,9.118,2.446a9.458,9.458,0,0,1,3.893,6.658Z" transform="translate(143 139)" fill="#fff"/>
      <g id="logo" transform="translate(67 90)">
        <path id="Path_1" data-name="Path 1" d="M35-247c-3.771,2.092-12.38,9.407-18,16-2.555,2.993-4.757,6.051-5,7-.17.657-.136,1.45,4,6,1.557,1.7,2.976,2.854,3,3,.049.122.243,0,0,0a67.161,67.161,0,0,0-9,3,4.506,4.506,0,0,0-2,3,2.512,2.512,0,0,0,2,2c1.022.2,3.869-.443,10-2l4-1,2,2,3,3-1,2c-1.484,5.644-2.17,9.978-2,11a2.343,2.343,0,0,0,2,2,2.526,2.526,0,0,0,2-1,30.392,30.392,0,0,0,3-7v-3l4,4a16.807,16.807,0,0,0,4,3,5.017,5.017,0,0,0,2,0c1.046-.414,2.956-2.175,5-4,2.482-2.238,14.346-13.908,16-16a9.25,9.25,0,0,0,2-5c0-.292-2.278-2.2-6-6l-6-6,4-4c4.014-4.112,5.219-5.294,5-6a16.6,16.6,0,0,0-2-2c-2.092-1.971-1.964-2.012-7,3l-4,4-5-4c-5.961-5.766-8.586-8-9-8C35.805-248,35.681-247.389,35-247Zm7,8c6.5,6.131,19.367,18.735,20,20,.341.706-.859,2.3-3,5-6.2,7.713-16.37,16.754-18,16-1.411-.657-24-24.27-24-25,0-.608.54-1.029,2-3,1.557-2.092,11.786-13.224,14-15a7.9,7.9,0,0,1,4-2C37.316-243,38.983-241.847,42-239Z" transform="translate(-8 248)" fill="#fff"/>
      </g>
    </g>
  </g>
</svg>
