{
  "accessors": [
    {
      "bufferView": 2,
      "componentType": 5126,
      "count": 204,
      "max": [
        4.37699090980459e-05,
        750.000244140625,
        175
      ],
      "min": [
        -820.137939453125,
        -779.99993896484375,
        -175.00010681152344
      ],
      "type": "VEC3"
    },
    {
      "bufferView": 2,
      "byteOffset": 2448,
      "componentType": 5126,
      "count": 204,
      "max": [
        1,
        1,
        1
      ],
      "min": [
        -1,
        -1,
        -1
      ],
      "type": "VEC3"
    },
    {
      "bufferView": 3,
      "componentType": 5126,
      "count": 204,
      "max": [
        1,
        1,
        3.6468583175519598e-07,
        1
      ],
      "min": [
        -1,
        -1,
        -2.6041655587505375e-07,
        1
      ],
      "type": "VEC4"
    },
    {
      "bufferView": 1,
      "componentType": 5126,
      "count": 204,
      "max": [
        0.93284797668457031,
        0.99950003623962402
      ],
      "min": [
        0.00050000002374872565,
        0.00050000002374872565
      ],
      "type": "VEC2"
    },
    {
      "bufferView": 0,
      "componentType": 5125,
      "count": 420,
      "max": [
        203
      ],
      "min": [
        0
      ],
      "type": "SCALAR"
    },
    {
      "bufferView": 2,
      "byteOffset": 4896,
      "componentType": 5126,
      "count": 2304,
      "max": [
        175.00004577636719,
        717.9559326171875,
        792.0001220703125
      ],
      "min": [
        174,
        -747.9998779296875,
        7.99993896484375
      ],
      "type": "VEC3"
    },
    {
      "bufferView": 2,
      "byteOffset": 32544,
      "componentType": 5126,
      "count": 2304,
      "max": [
        1,
        1,
        1
      ],
      "min": [
        -1,
        -1,
        -1
      ],
      "type": "VEC3"
    },
    {
      "bufferView": 3,
      "byteOffset": 3264,
      "componentType": 5126,
      "count": 2304,
      "max": [
        0,
        0,
        0,
        1
      ],
      "min": [
        0,
        -1,
        0,
        -1
      ],
      "type": "VEC4"
    },
    {
      "bufferView": 0,
      "byteOffset": 1680,
      "componentType": 5125,
      "count": 3456,
      "max": [
        2303
      ],
      "min": [
        0
      ],
      "type": "SCALAR"
    },
    {
      "bufferView": 2,
      "byteOffset": 60192,
      "componentType": 5126,
      "count": 16964,
      "max": [
        175.00048828125,
        756.00006103515625,
        800.0001220703125
      ],
      "min": [
        30.941200256347656,
        -785.99993896484375,
        -6.103515625e-05
      ],
      "type": "VEC3"
    },
    {
      "bufferView": 2,
      "byteOffset": 263760,
      "componentType": 5126,
      "count": 16964,
      "max": [
        1,
        1,
        1
      ],
      "min": [
        -1,
        -1,
        -1
      ],
      "type": "VEC3"
    },
    {
      "bufferView": 3,
      "byteOffset": 40128,
      "componentType": 5126,
      "count": 16964,
      "max": [
        1,
        1,
        1,
        1
      ],
      "min": [
        -1,
        -1,
        -1,
        -1
      ],
      "type": "VEC4"
    },
    {
      "bufferView": 1,
      "byteOffset": 1632,
      "componentType": 5126,
      "count": 16964,
      "max": [
        0.99950003623962402,
        0.99942368268966675
      ],
      "min": [
        0.00050000002374872565,
        0.00050000002374872565
      ],
      "type": "VEC2"
    },
    {
      "bufferView": 0,
      "byteOffset": 15504,
      "componentType": 5125,
      "count": 23850,
      "max": [
        16963
      ],
      "min": [
        0
      ],
      "type": "SCALAR"
    },
    {
      "bufferView": 2,
      "byteOffset": 467328,
      "componentType": 5126,
      "count": 10752,
      "max": [
        140.4595947265625,
        482.1143798828125,
        107.1009521484375
      ],
      "min": [
        112.22584533691406,
        -483.2396240234375,
        91.113761901855469
      ],
      "type": "VEC3"
    },
    {
      "bufferView": 2,
      "byteOffset": 596352,
      "componentType": 5126,
      "count": 10752,
      "max": [
        1,
        1,
        0.99999690055847168
      ],
      "min": [
        -0.98363876342773438,
        -1,
        -0.9999968409538269
      ],
      "type": "VEC3"
    },
    {
      "bufferView": 3,
      "byteOffset": 311552,
      "componentType": 5126,
      "count": 10752,
      "max": [
        1,
        0.99933069944381714,
        0.84040778875350952,
        1
      ],
      "min": [
        -0.82556062936782837,
        -0.99933075904846191,
        -0.93238711357116699,
        -1
      ],
      "type": "VEC4"
    },
    {
      "bufferView": 1,
      "byteOffset": 137344,
      "componentType": 5126,
      "count": 10752,
      "max": [
        0.99899482727050781,
        0.98930412530899048
      ],
      "min": [
        0.55891990661621094,
        0.028222974389791489
      ],
      "type": "VEC2"
    },
    {
      "bufferView": 0,
      "byteOffset": 110904,
      "componentType": 5125,
      "count": 10800,
      "max": [
        10751
      ],
      "min": [
        0
      ],
      "type": "SCALAR"
    },
    {
      "bufferView": 2,
      "byteOffset": 725376,
      "componentType": 5126,
      "count": 504,
      "max": [
        121.69789886474609,
        478.832763671875,
        101.51214599609375
      ],
      "min": [
        113.09716033935547,
        -479.96435546875,
        91.98370361328125
      ],
      "type": "VEC3"
    },
    {
      "bufferView": 2,
      "byteOffset": 731424,
      "componentType": 5126,
      "count": 504,
      "max": [
        -0.64229005575180054,
        0.54187828302383423,
        -0.54146265983581543
      ],
      "min": [
        -0.6432989239692688,
        -0.49248218536376953,
        -0.7662087082862854
      ],
      "type": "VEC3"
    },
    {
      "bufferView": 3,
      "byteOffset": 483584,
      "componentType": 5126,
      "count": 504,
      "max": [
        0,
        0,
        0,
        1
      ],
      "min": [
        0,
        0,
        0,
        1
      ],
      "type": "VEC4"
    },
    {
      "bufferView": 0,
      "byteOffset": 154104,
      "componentType": 5125,
      "count": 504,
      "max": [
        503
      ],
      "min": [
        0
      ],
      "type": "SCALAR"
    },
    {
      "bufferView": 2,
      "byteOffset": 737472,
      "componentType": 5126,
      "count": 192,
      "max": [
        36.939262390136719,
        97.312713623046875,
        797.35736083984375
      ],
      "min": [
        -175.00006103515625,
        -97.312713623046875,
        795.25970458984375
      ],
      "type": "VEC3"
    },
    {
      "bufferView": 2,
      "byteOffset": 739776,
      "componentType": 5126,
      "count": 192,
      "max": [
        1,
        1,
        1
      ],
      "min": [
        -1,
        -1,
        -1
      ],
      "type": "VEC3"
    },
    {
      "bufferView": 3,
      "byteOffset": 491648,
      "componentType": 5126,
      "count": 192,
      "max": [
        1,
        1,
        0,
        1
      ],
      "min": [
        0,
        -1,
        0,
        1
      ],
      "type": "VEC4"
    },
    {
      "bufferView": 1,
      "byteOffset": 223360,
      "componentType": 5126,
      "count": 192,
      "max": [
        0.97472333908081055,
        0.416301429271698
      ],
      "min": [
        0.10743147134780884,
        0.004460425116121769
      ],
      "type": "VEC2"
    },
    {
      "bufferView": 0,
      "byteOffset": 156120,
      "componentType": 5125,
      "count": 648,
      "max": [
        191
      ],
      "min": [
        0
      ],
      "type": "SCALAR"
    },
    {
      "bufferView": 2,
      "byteOffset": 742080,
      "componentType": 5126,
      "count": 28,
      "max": [
        110.32747650146484,
        452.80661010742188,
        5.942840576171875
      ],
      "min": [
        -106.43607330322266,
        249.21005249023438,
        -0.0001010894775390625
      ],
      "type": "VEC3"
    },
    {
      "bufferView": 2,
      "byteOffset": 742416,
      "componentType": 5126,
      "count": 28,
      "max": [
        1,
        1,
        1
      ],
      "min": [
        -1,
        -1,
        -1
      ],
      "type": "VEC3"
    },
    {
      "bufferView": 3,
      "byteOffset": 494720,
      "componentType": 5126,
      "count": 28,
      "max": [
        0,
        1,
        1,
        1
      ],
      "min": [
        0,
        -1,
        -1,
        1
      ],
      "type": "VEC4"
    },
    {
      "bufferView": 1,
      "byteOffset": 224896,
      "componentType": 5126,
      "count": 28,
      "max": [
        462.7001953125,
        462.7001953125
      ],
      "min": [
        -461.7001953125,
        -73.599761962890625
      ],
      "type": "VEC2"
    },
    {
      "bufferView": 0,
      "byteOffset": 158712,
      "componentType": 5125,
      "count": 36,
      "max": [
        27
      ],
      "min": [
        0
      ],
      "type": "SCALAR"
    },
    {
      "bufferView": 2,
      "byteOffset": 742752,
      "componentType": 5126,
      "count": 28,
      "max": [
        110.32747650146484,
        -267.99722290039062,
        5.942840576171875
      ],
      "min": [
        -106.43607330322266,
        -471.59378051757812,
        -0.0001010894775390625
      ],
      "type": "VEC3"
    },
    {
      "bufferView": 2,
      "byteOffset": 743088,
      "componentType": 5126,
      "count": 28,
      "max": [
        1,
        1,
        1
      ],
      "min": [
        -1,
        -1,
        -1
      ],
      "type": "VEC3"
    },
    {
      "bufferView": 3,
      "byteOffset": 495168,
      "componentType": 5126,
      "count": 28,
      "max": [
        0,
        1,
        1,
        1
      ],
      "min": [
        0,
        -1,
        -1,
        1
      ],
      "type": "VEC4"
    },
    {
      "bufferView": 1,
      "byteOffset": 225120,
      "componentType": 5126,
      "count": 28,
      "max": [
        462.7001953125,
        143.16378784179688
      ],
      "min": [
        -461.7001953125,
        -461.7001953125
      ],
      "type": "VEC2"
    },
    {
      "bufferView": 0,
      "byteOffset": 158856,
      "componentType": 5125,
      "count": 36,
      "max": [
        27
      ],
      "min": [
        0
      ],
      "type": "SCALAR"
    },
    {
      "bufferView": 2,
      "byteOffset": 743424,
      "componentType": 5126,
      "count": 56,
      "max": [
        -174.99993896484375,
        771.76873779296875,
        811.6099853515625
      ],
      "min": [
        -174.99996948242188,
        -802.63946533203125,
        -11.6099853515625
      ],
      "type": "VEC3"
    },
    {
      "bufferView": 2,
      "byteOffset": 744096,
      "componentType": 5126,
      "count": 56,
      "max": [
        1,
        0,
        0
      ],
      "min": [
        1,
        0,
        -7.414197966681968e-08
      ],
      "type": "VEC3"
    },
    {
      "bufferView": 3,
      "byteOffset": 495616,
      "componentType": 5126,
      "count": 56,
      "max": [
        0,
        4.0491403296982753e-07,
        -1,
        1
      ],
      "min": [
        -7.4141986772247037e-08,
        1.5258790142524958e-07,
        -1,
        1
      ],
      "type": "VEC4"
    },
    {
      "bufferView": 1,
      "byteOffset": 225344,
      "componentType": 5126,
      "count": 56,
      "max": [
        0.99950003623962402,
        0.99364537000656128
      ],
      "min": [
        0.00050000002374872565,
        0.00050000002374872565
      ],
      "type": "VEC2"
    },
    {
      "bufferView": 0,
      "byteOffset": 159000,
      "componentType": 5125,
      "count": 96,
      "max": [
        55
      ],
      "min": [
        0
      ],
      "type": "SCALAR"
    }
  ],
  "asset": {
    "extras": {
      "author": "Lubus (https://sketchfab.com/Lubus)",
      "license": "SKETCHFAB Standard (https://sketchfab.com/licenses)",
      "source": "https://sketchfab.com/models/acc162ade37c4b07b2d74a59fc40d5af",
      "title": "Abandoned VR Gallery for Design & Street Art"
    },
    "generator": "Sketchfab-3.25.5",
    "version": "2.0"
  },
  "bufferViews": [
    {
      "buffer": 0,
      "byteLength": 159384,
      "byteOffset": 0,
      "name": "floatBufferViews",
      "target": 34963
    },
    {
      "buffer": 0,
      "byteLength": 225792,
      "byteOffset": 159384,
      "byteStride": 8,
      "name": "floatBufferViews",
      "target": 34962
    },
    {
      "buffer": 0,
      "byteLength": 744768,
      "byteOffset": 385176,
      "byteStride": 12,
      "name": "floatBufferViews",
      "target": 34962
    },
    {
      "buffer": 0,
      "byteLength": 496512,
      "byteOffset": 1129944,
      "byteStride": 16,
      "name": "floatBufferViews",
      "target": 34962
    }
  ],
  "buffers": [
    {
      "byteLength": 1626456,
      "uri": "scene.bin"
    }
  ],
  "extensionsUsed": [
    "KHR_materials_unlit"
  ],
  "images": [
    {
      "uri": "textures/vray_fabric_a_baseColor.jpg"
    },
    {
      "uri": "textures/vray_brick_baseColor.jpg"
    },
    {
      "uri": "textures/ceramic_baseColor.jpg"
    },
    {
      "uri": "textures/vray_plastic_baseColor.jpg"
    },
    {
      "uri": "textures/vray_iron_baseColor.jpg"
    },
    {
      "uri": "textures/Concrete_Floor_Cracked_baseColor.jpg"
    },
    {
      "uri": "textures/vray_fabric_b_baseColor.jpg"
    }
  ],
  "materials": [
    {
      "doubleSided": false,
      "emissiveFactor": [
        0,
        0,
        0
      ],
      "extensions": {
        "KHR_materials_unlit": {}
      },
      "name": "vray_brick",
      "pbrMetallicRoughness": {
        "baseColorFactor": [
          1,
          1,
          1,
          1
        ],
        "baseColorTexture": {
          "index": 1,
          "texCoord": 0
        },
        "metallicFactor": 0,
        "roughnessFactor": 1
      }
    },
    {
      "alphaMode": "BLEND",
      "doubleSided": true,
      "emissiveFactor": [
        0,
        0,
        0
      ],
      "extensions": {
        "KHR_materials_unlit": {}
      },
      "name": "vray_glass",
      "pbrMetallicRoughness": {
        "baseColorFactor": [
          1,
          1,
          1,
          0.2395198171
        ],
        "metallicFactor": 0,
        "roughnessFactor": 1
      }
    },
    {
      "doubleSided": true,
      "emissiveFactor": [
        0,
        0,
        0
      ],
      "extensions": {
        "KHR_materials_unlit": {}
      },
      "name": "vray_iron",
      "pbrMetallicRoughness": {
        "baseColorFactor": [
          1,
          1,
          1,
          1
        ],
        "baseColorTexture": {
          "index": 4,
          "texCoord": 0
        },
        "metallicFactor": 0,
        "roughnessFactor": 1
      }
    },
    {
      "doubleSided": true,
      "emissiveFactor": [
        0,
        0,
        0
      ],
      "extensions": {
        "KHR_materials_unlit": {}
      },
      "name": "vray_plastic",
      "pbrMetallicRoughness": {
        "baseColorFactor": [
          1,
          1,
          1,
          1
        ],
        "baseColorTexture": {
          "index": 3,
          "texCoord": 0
        },
        "metallicFactor": 0,
        "roughnessFactor": 1
      }
    },
    {
      "doubleSided": true,
      "emissiveFactor": [
        1,
        1,
        1
      ],
      "extensions": {
        "KHR_materials_unlit": {}
      },
      "name": "vray_light",
      "pbrMetallicRoughness": {
        "baseColorFactor": [
          1,
          1,
          1,
          1
        ],
        "metallicFactor": 0,
        "roughnessFactor": 1
      }
    },
    {
      "doubleSided": true,
      "emissiveFactor": [
        0,
        0,
        0
      ],
      "extensions": {
        "KHR_materials_unlit": {}
      },
      "name": "ceramic",
      "pbrMetallicRoughness": {
        "baseColorFactor": [
          1,
          1,
          1,
          1
        ],
        "baseColorTexture": {
          "index": 2,
          "texCoord": 0
        },
        "metallicFactor": 0,
        "roughnessFactor": 1
      }
    },
    {
      "doubleSided": true,
      "emissiveFactor": [
        0,
        0,
        0
      ],
      "extensions": {
        "KHR_materials_unlit": {}
      },
      "name": "vray_fabric_b",
      "pbrMetallicRoughness": {
        "baseColorFactor": [
          0.70903201220000001,
          0.70903201220000001,
          0.70903201220000001,
          1
        ],
        "baseColorTexture": {
          "index": 6,
          "texCoord": 0
        },
        "metallicFactor": 0,
        "roughnessFactor": 1
      }
    },
    {
      "doubleSided": true,
      "emissiveFactor": [
        0,
        0,
        0
      ],
      "extensions": {
        "KHR_materials_unlit": {}
      },
      "name": "vray_fabric_a",
      "pbrMetallicRoughness": {
        "baseColorFactor": [
          1,
          1,
          1,
          1
        ],
        "baseColorTexture": {
          "index": 0,
          "texCoord": 0
        },
        "metallicFactor": 0,
        "roughnessFactor": 1
      }
    },
    {
      "doubleSided": false,
      "emissiveFactor": [
        0,
        0,
        0
      ],
      "extensions": {
        "KHR_materials_unlit": {}
      },
      "name": "Concrete_Floor_Cracked",
      "pbrMetallicRoughness": {
        "baseColorFactor": [
          1,
          1,
          1,
          1
        ],
        "baseColorTexture": {
          "index": 5,
          "texCoord": 0
        },
        "metallicFactor": 0,
        "roughnessFactor": 1
      }
    }
  ],
  "meshes": [
    {
      "name": "walls_vray_brick_0",
      "primitives": [
        {
          "attributes": {
            "NORMAL": 1,
            "POSITION": 0,
            "TANGENT": 2,
            "TEXCOORD_0": 3
          },
          "indices": 4,
          "material": 0,
          "mode": 4
        }
      ]
    },
    {
      "name": "glass_vray glass_0",
      "primitives": [
        {
          "attributes": {
            "NORMAL": 6,
            "POSITION": 5,
            "TANGENT": 7
          },
          "indices": 8,
          "material": 1,
          "mode": 4
        }
      ]
    },
    {
      "name": "prop_vray_iron_0",
      "primitives": [
        {
          "attributes": {
            "NORMAL": 10,
            "POSITION": 9,
            "TANGENT": 11,
            "TEXCOORD_0": 12
          },
          "indices": 13,
          "material": 2,
          "mode": 4
        }
      ]
    },
    {
      "name": "prop_vray plastic_0",
      "primitives": [
        {
          "attributes": {
            "NORMAL": 15,
            "POSITION": 14,
            "TANGENT": 16,
            "TEXCOORD_0": 17
          },
          "indices": 18,
          "material": 3,
          "mode": 4
        }
      ]
    },
    {
      "name": "prop_vray_light_0",
      "primitives": [
        {
          "attributes": {
            "NORMAL": 20,
            "POSITION": 19,
            "TANGENT": 21
          },
          "indices": 22,
          "material": 4,
          "mode": 4
        }
      ]
    },
    {
      "name": "prop_ceramic_0",
      "primitives": [
        {
          "attributes": {
            "NORMAL": 24,
            "POSITION": 23,
            "TANGENT": 25,
            "TEXCOORD_0": 26
          },
          "indices": 27,
          "material": 5,
          "mode": 4
        }
      ]
    },
    {
      "name": "prop_vray_fabric_b_0",
      "primitives": [
        {
          "attributes": {
            "NORMAL": 29,
            "POSITION": 28,
            "TANGENT": 30,
            "TEXCOORD_0": 31
          },
          "indices": 32,
          "material": 6,
          "mode": 4
        }
      ]
    },
    {
      "name": "prop_vray_fabric_a_0",
      "primitives": [
        {
          "attributes": {
            "NORMAL": 34,
            "POSITION": 33,
            "TANGENT": 35,
            "TEXCOORD_0": 36
          },
          "indices": 37,
          "material": 7,
          "mode": 4
        }
      ]
    },
    {
      "name": "floor_Concrete Floor Cracked_0",
      "primitives": [
        {
          "attributes": {
            "NORMAL": 39,
            "POSITION": 38,
            "TANGENT": 40,
            "TEXCOORD_0": 41
          },
          "indices": 42,
          "material": 8,
          "mode": 4
        }
      ]
    }
  ],
  "nodes": [
    {
      "children": [
        1
      ],
      "name": "RootNode (gltf orientation matrix)",
      "rotation": [
        -0.70710678118654746,
        -0,
        -0,
        0.70710678118654757
      ]
    },
    {
      "children": [
        2
      ],
      "name": "RootNode (model correction matrix)"
    },
    {
      "children": [
        3
      ],
      "matrix": [
        1,
        0,
        0,
        0,
        0,
        0,
        1,
        0,
        0,
        -1,
        0,
        0,
        0,
        0,
        0,
        1
      ],
      "name": "5c333085e8c048b381383b2984e1b7ce.fbx"
    },
    {
      "children": [
        4,
        6,
        8,
        15
      ],
      "name": "RootNode"
    },
    {
      "children": [
        5
      ],
      "matrix": [
        1,
        0,
        0,
        0,
        0,
        2.2204460492503131e-16,
        -1,
        0,
        0,
        1,
        2.2204460492503131e-16,
        0,
        403.89425659179688,
        174.99996948242188,
        1.2904472351074219,
        1
      ],
      "name": "walls"
    },
    {
      "mesh": 0,
      "name": "walls_vray_brick_0"
    },
    {
      "children": [
        7
      ],
      "matrix": [
        1.6292068449885733e-07,
        0.99999999999998679,
        2.2204460492503131e-16,
        0,
        -2.2204460492503131e-16,
        1.1102230246251565e-16,
        -1,
        0,
        -0.99999999999998679,
        1.6292068460987963e-07,
        1.1102230246251565e-16,
        0,
        403.89425659179688,
        174.99996948242188,
        1.2904472351074219,
        1
      ],
      "name": "glass"
    },
    {
      "mesh": 1,
      "name": "glass_vray glass_0"
    },
    {
      "children": [
        9,
        10,
        11,
        12,
        13,
        14
      ],
      "matrix": [
        1.6292068449885733e-07,
        0.99999999999998679,
        2.2204460492503131e-16,
        0,
        -2.2204460492503131e-16,
        1.1102230246251565e-16,
        -1,
        0,
        -0.99999999999998679,
        1.6292068460987963e-07,
        1.1102230246251565e-16,
        0,
        403.89425659179688,
        174.99996948242188,
        1.2904472351074219,
        1
      ],
      "name": "prop"
    },
    {
      "mesh": 2,
      "name": "prop_vray_iron_0"
    },
    {
      "mesh": 3,
      "name": "prop_vray plastic_0"
    },
    {
      "mesh": 4,
      "name": "prop_vray_light_0"
    },
    {
      "mesh": 5,
      "name": "prop_ceramic_0"
    },
    {
      "mesh": 6,
      "name": "prop_vray_fabric_b_0"
    },
    {
      "mesh": 7,
      "name": "prop_vray_fabric_a_0"
    },
    {
      "children": [
        16
      ],
      "matrix": [
        4.3711388286737929e-08,
        0.99999999999999911,
        0,
        0,
        0,
        0,
        -1,
        0,
        -0.99999999999999911,
        4.3711388286737929e-08,
        0,
        0,
        403.89425659179688,
        174.99996948242188,
        1.2904472351074219,
        1
      ],
      "name": "floor"
    },
    {
      "mesh": 8,
      "name": "floor_Concrete Floor Cracked_0"
    }
  ],
  "samplers": [
    {
      "magFilter": 9729,
      "minFilter": 9987,
      "wrapS": 10497,
      "wrapT": 10497
    },
    {
      "magFilter": 9728,
      "minFilter": 9728,
      "wrapS": 10497,
      "wrapT": 10497
    }
  ],
  "scene": 0,
  "scenes": [
    {
      "name": "OSG_Scene",
      "nodes": [
        0
      ]
    }
  ],
  "textures": [
    {
      "sampler": 0,
      "source": 0
    },
    {
      "sampler": 0,
      "source": 1
    },
    {
      "sampler": 0,
      "source": 2
    },
    {
      "sampler": 0,
      "source": 3
    },
    {
      "sampler": 1,
      "source": 4
    },
    {
      "sampler": 1,
      "source": 5
    },
    {
      "sampler": 0,
      "source": 6
    }
  ]
}

